<svg width="1024" height="1024" viewBox="0 0 1024 1024" fill="none" xmlns="http://www.w3.org/2000/svg">
<path d="M814.599 136.316H245.716C185.296 136.316 136.316 185.296 136.316 245.717V814.6C136.316 875.02 185.296 924 245.716 924H814.599C875.02 924 924 875.02 924 814.6V245.717C924 185.296 875.02 136.316 814.599 136.316Z" fill="#494444"/>
<path d="M778.283 100H209.401C148.98 100 100 148.98 100 209.401V778.284C100 838.704 148.98 887.684 209.401 887.684H778.283C838.704 887.684 887.684 838.704 887.684 778.284V209.401C887.684 148.98 838.704 100 778.283 100Z" fill="#8B80F9" stroke="#494444" stroke-width="12"/>
<path d="M339.512 620.197C330.723 620.197 321.852 619.628 312.9 618.488C304.111 617.349 295.648 615.559 287.51 613.117C279.535 610.513 272.048 607.176 265.049 603.107C258.05 599.038 251.947 593.993 246.738 587.971C241.693 581.949 237.705 574.868 234.775 566.73C231.846 558.592 230.381 549.234 230.381 538.654C230.381 524.494 233.066 512.368 238.438 502.277C243.809 492.186 250.97 483.804 259.922 477.131C269.036 470.458 279.453 465.331 291.172 461.75C302.891 458.169 315.016 455.891 327.549 454.914V438.068C327.549 431.721 326.735 426.675 325.107 422.932C323.48 419.188 321.364 416.421 318.76 414.631C316.318 412.678 313.551 411.457 310.459 410.969C307.529 410.318 304.681 409.992 301.914 409.992C298.659 409.992 295.16 410.48 291.416 411.457C287.835 412.434 284.336 413.654 280.918 415.119C277.5 416.421 274.245 417.886 271.152 419.514C268.06 421.141 265.456 422.606 263.34 423.908C262.363 424.559 261.468 425.129 260.654 425.617C259.84 426.105 259.027 426.35 258.213 426.35C256.748 426.35 255.365 425.292 254.062 423.176L245.762 409.992C244.948 408.853 244.541 407.632 244.541 406.33C244.541 405.028 245.029 403.889 246.006 402.912C247.145 401.936 248.203 401.122 249.18 400.471C254.551 396.727 261.387 392.902 269.688 388.996C277.988 385.09 287.266 381.59 297.52 378.498C307.936 375.406 319.167 372.883 331.211 370.93C343.255 368.977 355.706 368 368.564 368C380.771 368 392.653 368.407 404.209 369.221C415.928 370.035 426.914 371.825 437.168 374.592C447.585 377.196 457.025 381.021 465.488 386.066C474.115 390.949 481.52 397.46 487.705 405.598C494.053 413.736 498.936 423.745 502.354 435.627C505.771 447.508 507.48 461.75 507.48 478.352V587.238C507.48 592.609 506.992 597.411 506.016 601.643C505.039 605.712 503.167 609.13 500.4 611.896C497.633 614.663 493.809 616.779 488.926 618.244C484.043 619.546 477.695 620.197 469.883 620.197H339.512ZM327.549 485.92C315.83 485.92 305.983 487.385 298.008 490.314C290.033 493.244 283.604 497.15 278.721 502.033C273.838 506.916 270.339 512.613 268.223 519.123C266.107 525.471 265.049 532.062 265.049 538.898C265.049 545.734 266.107 552.245 268.223 558.43C270.339 564.452 273.838 569.742 278.721 574.299C283.604 578.856 290.033 582.437 298.008 585.041C305.983 587.645 315.83 588.947 327.549 588.947V485.92ZM467.686 599.689C471.592 599.689 474.766 599.608 477.207 599.445C479.648 599.12 481.602 598.469 483.066 597.492C484.531 596.353 485.508 594.807 485.996 592.854C486.484 590.738 486.729 587.808 486.729 584.064V472.98C486.729 459.797 485.345 448.729 482.578 439.777C479.811 430.663 476.312 423.257 472.08 417.561C468.011 411.701 463.535 407.307 458.652 404.377C453.77 401.285 449.212 399.006 444.98 397.541C446.934 399.657 449.212 402.668 451.816 406.574C454.583 410.48 457.106 415.445 459.385 421.467C461.663 427.489 463.617 434.732 465.244 443.195C466.872 451.496 467.686 461.099 467.686 472.004V599.689Z" fill="#FFF4BD"/>
<path d="M691.459 409C699.259 409 705.597 409.729 710.473 411.186C715.348 412.642 719.168 414.828 721.931 417.741C724.693 420.493 726.562 423.973 727.537 428.181C728.512 432.389 729 437.326 729 442.991V631.155C729 650.579 726.806 667.332 722.418 681.414C718.193 695.658 712.423 707.635 705.11 717.347C697.96 727.058 689.589 734.91 680.001 740.898C670.575 746.887 660.662 751.5 650.261 754.737C639.86 758.136 629.295 760.322 618.569 761.293C607.843 762.426 597.686 762.992 588.098 762.992C566.645 762.992 548.687 761.536 534.223 758.622C519.759 755.87 507.814 751.985 498.388 746.968C497.575 746.644 496.681 745.916 495.706 744.783C494.568 743.812 494 741.95 494 739.198V721.231C494 719.127 494.326 717.752 494.976 717.104C495.626 716.619 496.438 716.376 497.413 716.376C498.388 716.376 499.444 716.538 500.582 716.861C501.557 717.185 502.857 717.509 504.482 717.833C505.945 718.157 507.814 718.48 510.089 718.804C512.364 719.127 515.29 719.289 518.865 719.289C539.18 719.289 549.337 706.745 549.337 681.656V442.748C549.337 439.025 549.581 435.221 550.068 431.337C550.718 427.29 552.181 423.648 554.456 420.411C556.894 417.012 560.47 414.26 565.183 412.156C569.896 410.052 576.478 409 584.929 409H691.459ZM689.265 635.526C689.265 643.134 689.102 650.498 688.777 657.62C688.615 664.58 688.045 671.54 687.07 678.5C686.258 685.46 684.877 692.421 682.927 699.381C680.977 706.341 678.295 713.462 674.882 720.746C681.057 715.567 686.258 709.902 690.483 703.751C694.709 697.6 698.121 690.721 700.722 683.113C703.484 675.668 705.435 667.332 706.572 658.105C707.71 649.041 708.279 638.844 708.279 627.514V444.934C708.279 441.373 708.035 438.54 707.548 436.436C707.06 434.331 706.085 432.794 704.622 431.823C703.159 430.69 701.209 430.043 698.771 429.881C696.334 429.557 693.165 429.395 689.265 429.395V635.526Z" fill="#46FFA6"/>
<path d="M639.422 225C650.473 225 660.874 227.185 670.625 231.556C680.538 235.764 689.152 241.51 696.465 248.794C703.778 256.078 709.548 264.656 713.773 274.529C718.161 284.403 720.355 294.924 720.355 306.093C720.355 317.099 718.161 327.54 713.773 337.413C709.548 347.125 703.778 355.622 696.465 362.906C689.152 370.19 680.539 376.017 670.625 380.388C660.874 384.596 650.473 386.7 639.422 386.7C628.208 386.7 617.644 384.596 607.73 380.388C597.817 376.017 589.204 370.19 581.891 362.906C574.577 355.622 568.727 347.125 564.339 337.413C560.113 327.54 558 317.099 558 306.093C558 294.924 560.113 284.403 564.339 274.529C568.727 264.656 574.577 256.078 581.891 248.794C589.204 241.51 597.817 235.764 607.73 231.556C617.644 227.185 628.208 225 639.422 225ZM654.779 247.822C662.418 255.268 668.431 264.009 672.819 274.044C677.37 284.079 679.645 294.762 679.645 306.093C679.645 317.423 677.37 328.106 672.819 338.142C668.431 348.177 662.418 356.918 654.779 364.363C661.28 362.745 667.212 360.073 672.575 356.351C678.101 352.628 682.814 348.258 686.714 343.24C690.777 338.061 693.946 332.315 696.222 326.002C698.497 319.689 699.634 313.053 699.634 306.093C699.634 299.133 698.497 292.496 696.222 286.184C693.946 279.871 690.777 274.206 686.714 269.188C682.813 264.009 678.101 259.638 672.575 256.077C667.212 252.354 661.28 249.603 654.779 247.822Z" fill="#F67575"/>
</svg>
